<?xml version="1.0" standalone="no"?>
<!DOCTYPE svg PUBLIC "-//W3C//DTD SVG 20010904//EN"
 "http://www.w3.org/TR/2001/REC-SVG-20010904/DTD/svg10.dtd">
<svg version="1.0" xmlns="http://www.w3.org/2000/svg"
 width="560.000000pt" height="560.000000pt" viewBox="0 0 560.000000 560.000000"
 preserveAspectRatio="xMidYMid meet">
<metadata>
Created by potrace 1.14, written by Peter Selinger 2001-2017
</metadata>
<g transform="translate(0.000000,560.000000) scale(0.100000,-0.100000)"
fill="#000000" stroke="none">
<path d="M5304 4554 c-33 -43 -118 -130 -183 -187 -139 -121 -389 -254 -481
-256 -19 0 -73 -12 -120 -27 -160 -49 -451 -122 -555 -139 -16 -3 -42 -8 -57
-11 -16 -3 -28 -1 -28 4 0 12 -51 7 -77 -7 -30 -15 -141 -51 -161 -51 -10 0
-23 5 -30 12 -8 8 -19 5 -45 -15 -19 -14 -63 -40 -97 -58 -78 -40 -133 -88
-167 -148 -36 -64 -95 -152 -114 -170 -54 -54 -184 -92 -315 -93 -88 -1 -112
3 -180 28 -96 35 -152 87 -236 222 -59 94 -76 109 -188 169 -30 15 -60 34 -68
41 -30 27 -51 33 -59 17 -8 -13 -21 -11 -101 15 -51 17 -107 37 -123 46 -29
15 -31 14 -36 -6 -3 -13 -11 -19 -22 -16 -20 6 -66 15 -106 21 -16 3 -48 9
-70 15 -22 5 -85 19 -140 31 -55 11 -118 27 -140 35 -22 7 -52 16 -67 18 -28
5 -38 8 -156 46 -34 11 -77 20 -95 20 -85 1 -300 108 -438 220 -76 62 -186
170 -214 211 -36 51 -60 53 -52 2 4 -20 10 -39 14 -42 4 -3 17 -23 28 -45 25
-48 80 -123 140 -188 25 -28 44 -52 42 -55 -11 -11 -115 65 -182 132 -38 38
-40 39 -43 17 -6 -43 82 -149 228 -276 25 -21 36 -35 25 -31 -11 4 -33 13 -50
19 -39 14 -143 74 -150 87 -9 14 -35 11 -35 -5 0 -23 107 -118 182 -163 26
-15 48 -34 48 -40 0 -19 -2 -19 -128 38 -40 18 -62 18 -62 1 0 -14 96 -80 156
-107 32 -15 94 -40 137 -55 43 -15 81 -30 84 -33 3 -3 -12 -9 -33 -13 -22 -4
-47 -11 -57 -16 -17 -9 -17 -10 5 -28 23 -17 63 -31 143 -48 l40 -8 -47 -24
c-36 -18 -45 -26 -37 -36 14 -17 95 -44 131 -44 34 0 36 -17 4 -32 -24 -10
-42 -36 -28 -40 13 -3 57 -9 105 -14 26 -3 47 -9 47 -13 0 -3 -14 -15 -30 -26
-28 -19 -40 -43 -22 -46 4 -1 21 -4 37 -7 17 -3 60 -5 97 -5 38 0 68 -3 68 -6
0 -4 -13 -17 -30 -31 -32 -26 -38 -46 -18 -52 7 -3 48 -3 91 -1 75 4 78 3 68
-16 -6 -10 -15 -21 -20 -23 -4 -1 -12 -14 -16 -27 -7 -23 -6 -23 46 -17 30 3
72 10 94 15 22 6 41 9 42 7 2 -2 -4 -19 -12 -39 -26 -63 -26 -63 82 -34 28 8
56 18 62 21 15 10 13 -14 -4 -44 -8 -14 -14 -28 -15 -32 0 -14 38 -8 105 16
36 13 65 21 65 17 -1 -3 -7 -17 -15 -31 -8 -14 -14 -37 -15 -52 0 -24 2 -26
28 -19 15 5 46 17 69 28 48 24 56 21 41 -13 -9 -18 -8 -28 1 -37 9 -9 24 -5
68 18 31 17 60 32 65 34 5 2 6 -12 3 -32 -9 -48 6 -54 61 -23 26 14 48 26 49
26 2 0 1 -18 -2 -40 -5 -35 -3 -40 15 -40 11 0 27 6 34 13 7 6 21 19 32 27 16
13 18 12 16 -5 -6 -51 -1 -62 25 -57 14 2 25 8 25 13 0 5 7 9 15 9 9 0 18 6
21 14 8 21 36 29 46 14 4 -7 8 -25 8 -40 0 -16 4 -28 9 -28 10 0 63 39 73 54
4 6 10 7 14 4 8 -9 8 -146 -1 -187 -6 -27 -4 -31 13 -31 25 0 32 -18 21 -49
-7 -16 -13 -21 -22 -14 -16 12 -25 11 -74 -15 -27 -14 -43 -29 -43 -41 0 -14
-6 -17 -25 -13 -34 6 -41 -18 -21 -68 9 -22 12 -40 7 -40 -5 0 -17 -7 -25 -16
-14 -14 -14 -19 3 -52 34 -68 54 -171 48 -252 -8 -111 -10 -114 -71 -105 -70
9 -75 15 -70 88 4 79 11 104 34 137 11 15 22 45 26 67 6 40 6 41 -37 56 -24 9
-59 18 -76 21 -18 2 -65 11 -105 20 -40 8 -125 25 -188 36 -205 37 -377 78
-505 122 -105 35 -261 108 -290 135 -11 10 -42 34 -70 52 -27 19 -60 43 -73
54 -19 18 -22 18 -22 4 0 -17 155 -195 219 -252 141 -124 142 -136 9 -111 -95
18 -168 42 -243 79 -55 28 -79 21 -46 -12 12 -12 24 -21 29 -21 4 0 29 -15 55
-34 49 -35 305 -165 412 -209 87 -36 228 -83 319 -107 44 -11 81 -22 84 -25 3
-2 -5 -47 -18 -99 -21 -89 -22 -97 -7 -128 20 -43 98 -117 162 -154 93 -55
312 -129 409 -138 32 -3 210 -35 234 -42 8 -2 16 -13 19 -24 3 -11 8 -20 12
-20 6 0 38 -20 100 -62 14 -10 35 -22 46 -27 11 -5 30 -19 42 -30 12 -12 26
-21 30 -21 4 0 28 -19 52 -41 l44 -40 32 33 c32 33 85 71 200 143 33 21 69 49
81 62 16 18 33 25 80 29 32 3 93 11 134 19 41 8 89 16 105 18 78 12 258 64
290 84 11 7 26 13 33 13 24 0 147 77 188 118 74 73 88 116 64 187 -41 116 -37
124 70 149 41 10 95 26 119 37 24 10 50 19 57 19 7 0 28 6 46 14 18 8 53 22
78 32 86 34 307 142 363 178 31 20 59 36 63 36 3 0 25 14 48 32 22 17 43 33
45 34 1 2 0 7 -3 13 -4 6 -30 -2 -66 -20 -33 -16 -71 -34 -86 -39 -47 -18
-207 -50 -249 -50 -38 1 -39 2 -20 15 67 49 181 159 265 255 36 41 71 81 79
89 8 9 10 16 3 19 -12 4 -102 -58 -102 -70 0 -4 -5 -8 -11 -8 -6 0 -28 -13
-48 -29 -38 -30 -194 -107 -240 -118 -14 -3 -31 -9 -36 -14 -6 -4 -29 -12 -50
-18 -22 -5 -84 -21 -137 -35 -109 -29 -222 -53 -289 -62 -24 -3 -98 -17 -164
-30 -66 -14 -142 -29 -170 -34 -27 -5 -66 -15 -87 -24 -34 -15 -36 -17 -29
-48 5 -18 19 -65 34 -103 24 -69 30 -98 28 -141 -1 -29 -40 -45 -147 -60 -40
-6 -42 -5 -48 22 -21 104 -17 168 17 279 19 61 30 112 26 115 -5 3 -10 21 -11
39 -1 19 -10 38 -20 45 -10 6 -18 16 -18 23 0 6 -13 20 -30 30 -28 16 -41 43
-21 43 6 0 9 26 7 58 -2 39 -1 50 5 35 11 -29 39 -30 39 -3 0 12 -9 39 -20 61
-12 22 -18 48 -15 59 3 10 6 39 7 64 0 25 3 46 6 46 6 0 84 -51 92 -61 3 -3
13 -8 22 -12 19 -7 32 20 22 47 -8 22 12 20 37 -3 12 -11 30 -21 41 -24 18 -5
20 -2 16 39 -3 43 6 55 28 35 5 -5 27 -19 48 -31 l39 -21 -6 45 c-4 25 -3 46
1 46 4 0 20 -9 36 -19 17 -11 33 -18 37 -16 4 3 12 -2 19 -10 20 -24 50 -19
50 9 0 14 -5 28 -10 31 -17 11 0 25 18 16 127 -64 146 -61 112 14 -12 26 -19
49 -17 52 3 2 24 -5 48 -16 24 -10 55 -22 69 -26 14 -4 33 -9 42 -11 15 -4 16
-1 8 26 -5 18 -14 38 -21 46 -18 22 -6 26 32 10 19 -8 48 -16 64 -19 17 -3 38
-8 48 -12 22 -9 23 24 2 65 -18 34 -19 34 60 15 33 -8 74 -15 92 -15 26 0 30
3 26 19 -3 11 -14 27 -24 37 -30 27 -23 35 29 33 26 -1 66 -1 90 0 l43 1 -15
29 c-9 16 -22 31 -31 34 -30 12 -14 22 38 23 62 1 147 11 154 18 3 3 -8 19
-25 36 -19 19 -27 32 -19 35 7 1 40 9 75 15 34 7 62 17 62 21 0 5 -11 16 -25
25 -32 21 -26 30 25 38 48 7 112 36 107 49 -3 9 -40 31 -72 42 -14 6 1 12 55
24 71 16 130 44 130 61 0 9 -14 14 -67 25 -36 7 -45 25 -13 25 42 0 241 90
308 139 40 29 56 61 30 61 -6 0 -39 -13 -73 -29 -34 -16 -79 -32 -101 -36 -38
-6 -37 -5 25 30 35 20 70 43 78 51 22 22 52 36 63 29 6 -4 7 1 3 11 -4 12 -3
15 5 10 7 -4 16 2 22 16 5 13 17 33 26 45 15 21 15 23 0 29 -10 4 -26 -1 -39
-13 -37 -34 -193 -110 -203 -100 -3 3 14 19 38 35 81 56 238 235 238 271 0 25
-21 17 -61 -22 -74 -71 -164 -135 -175 -125 -1 2 26 34 62 73 35 38 64 75 64
82 0 7 3 13 8 13 8 0 72 104 76 123 2 7 9 24 16 40 9 19 10 31 3 38 -8 8 -19
-1 -39 -27z m-3392 -629 c0 -5 -5 -11 -11 -13 -6 -2 -11 4 -11 13 0 9 5 15 11
13 6 -2 11 -8 11 -13z m990 -1331 l33 -15 0 -85 c-1 -46 2 -84 6 -84 3 0 6
-10 5 -22 -1 -16 4 -23 17 -22 9 1 29 2 43 3 16 1 23 5 18 13 -5 8 -2 9 10 5
11 -4 15 -3 11 4 -4 6 1 17 11 25 11 9 14 13 9 10 -6 -2 -17 -1 -25 5 -11 6
-12 9 -2 9 7 0 11 4 8 9 -4 5 3 7 14 4 11 -3 20 -9 20 -14 0 -5 6 -9 13 -9 6
0 23 -14 36 -30 13 -16 27 -28 31 -25 5 3 14 -8 22 -25 7 -16 19 -30 26 -30 7
0 10 -4 7 -10 -3 -5 -1 -10 4 -10 10 0 15 14 12 33 -2 10 36 -10 44 -24 4 -5
9 -52 11 -103 2 -52 4 -99 6 -106 6 -25 -365 -70 -432 -53 -14 4 -17 9 -11 22
5 9 8 134 7 278 0 145 2 263 6 263 4 0 22 -7 40 -16z"/>
</g>
</svg>
